<svg width="1179" height="693" viewBox="0 0 1179 693" fill="none" xmlns="http://www.w3.org/2000/svg">
<g filter="url(#filter0_dd_106_589)">
<rect x="188" y="431.192" width="348" height="68" rx="34" fill="#0E101C" fill-opacity="0.8" shape-rendering="crispEdges"/>
<rect x="189" y="432.192" width="346" height="66" rx="33" stroke="url(#paint0_linear_106_589)" stroke-opacity="0.8" stroke-width="2" stroke-linejoin="round" shape-rendering="crispEdges"/>
</g>
<path d="M228.81 457.791C230.144 457.791 231.303 458.011 232.286 458.451C233.283 458.891 234.046 459.522 234.574 460.343C235.102 461.165 235.366 462.14 235.366 463.269C235.366 464.384 235.102 465.359 234.574 466.195C234.046 467.017 233.283 467.647 232.286 468.087C231.303 468.527 230.144 468.747 228.81 468.747H225.334V473.191H222.474V457.791H228.81ZM228.678 466.327C229.924 466.327 230.87 466.063 231.516 465.535C232.161 465.007 232.484 464.252 232.484 463.269C232.484 462.287 232.161 461.531 231.516 461.003C230.87 460.475 229.924 460.211 228.678 460.211H225.334V466.327H228.678ZM250.501 470.793V473.191H238.951V457.791H250.193V460.189H241.811V464.193H249.247V466.547H241.811V470.793H250.501ZM267.862 466.701H265.222V473.191H262.428V466.701H259.788L255.894 473.191H252.594L257.434 465.161L252.924 457.791H255.96L259.722 464.237H262.428V457.791H265.222V464.237H267.884L271.668 457.791H274.704L270.216 465.183L275.034 473.191H271.734L267.862 466.701ZM277.923 457.791H280.739V468.725L289.011 457.791H291.673V473.191H288.857V462.279L280.585 473.191H277.923V457.791ZM311.017 473.191L310.995 462.983L305.935 471.431H304.659L299.599 463.115V473.191H296.893V457.791H299.247L305.341 467.977L311.369 457.791H313.701L313.745 473.191H311.017ZM332.23 457.791C333.565 457.791 334.724 458.011 335.706 458.451C336.704 458.891 337.466 459.522 337.994 460.343C338.522 461.165 338.786 462.14 338.786 463.269C338.786 464.384 338.522 465.359 337.994 466.195C337.466 467.017 336.704 467.647 335.706 468.087C334.724 468.527 333.565 468.747 332.23 468.747H328.754V473.191H325.894V457.791H332.23ZM332.098 466.327C333.345 466.327 334.291 466.063 334.936 465.535C335.582 465.007 335.904 464.252 335.904 463.269C335.904 462.287 335.582 461.531 334.936 461.003C334.291 460.475 333.345 460.211 332.098 460.211H328.754V466.327H332.098ZM351.807 469.627H344.107L342.589 473.191H339.641L346.571 457.791H349.387L356.339 473.191H353.347L351.807 469.627ZM350.861 467.383L347.957 460.651L345.075 467.383H350.861ZM359.602 457.791H371.592V460.145H362.418V463.929H366.972C368.82 463.929 370.221 464.318 371.174 465.095C372.142 465.858 372.626 466.965 372.626 468.417C372.626 469.943 372.098 471.123 371.042 471.959C369.986 472.781 368.483 473.191 366.532 473.191H359.602V457.791ZM366.378 470.991C367.478 470.991 368.314 470.779 368.886 470.353C369.458 469.928 369.744 469.312 369.744 468.505C369.744 466.921 368.622 466.129 366.378 466.129H362.418V470.991H366.378ZM383.766 473.411C382.196 473.411 380.781 473.074 379.52 472.399C378.258 471.71 377.268 470.764 376.55 469.561C375.831 468.344 375.472 466.987 375.472 465.491C375.472 463.995 375.831 462.646 376.55 461.443C377.268 460.226 378.258 459.28 379.52 458.605C380.781 457.916 382.196 457.571 383.766 457.571C385.335 457.571 386.75 457.916 388.012 458.605C389.273 459.28 390.263 460.219 390.982 461.421C391.7 462.624 392.06 463.981 392.06 465.491C392.06 467.002 391.7 468.359 390.982 469.561C390.263 470.764 389.273 471.71 388.012 472.399C386.75 473.074 385.335 473.411 383.766 473.411ZM383.766 470.903C384.792 470.903 385.716 470.676 386.538 470.221C387.359 469.752 388.004 469.107 388.474 468.285C388.943 467.449 389.178 466.518 389.178 465.491C389.178 464.465 388.943 463.541 388.474 462.719C388.004 461.883 387.359 461.238 386.538 460.783C385.716 460.314 384.792 460.079 383.766 460.079C382.739 460.079 381.815 460.314 380.994 460.783C380.172 461.238 379.527 461.883 379.058 462.719C378.588 463.541 378.354 464.465 378.354 465.491C378.354 466.518 378.588 467.449 379.058 468.285C379.527 469.107 380.172 469.752 380.994 470.221C381.815 470.676 382.739 470.903 383.766 470.903ZM407.063 460.211H401.959V473.191H399.121V460.211H394.039V457.791H407.063V460.211ZM417.516 463.005C419.364 463.005 420.779 463.423 421.762 464.259C422.759 465.081 423.258 466.305 423.258 467.933C423.258 469.635 422.715 470.94 421.63 471.849C420.544 472.744 419.019 473.191 417.054 473.191H410.432V457.791H413.248V463.005H417.516ZM416.922 470.991C418.036 470.991 418.894 470.735 419.496 470.221C420.097 469.708 420.398 468.96 420.398 467.977C420.398 466.115 419.239 465.183 416.922 465.183H413.248V470.991H416.922ZM425.48 457.791H428.296V473.191H425.48V457.791ZM450.43 470.771V473.191H439.078V471.277L445.194 465.469C445.884 464.809 446.346 464.237 446.58 463.753C446.83 463.255 446.954 462.763 446.954 462.279C446.954 461.561 446.712 461.011 446.228 460.629C445.744 460.248 445.033 460.057 444.094 460.057C442.525 460.057 441.322 460.593 440.486 461.663L438.484 460.123C439.086 459.317 439.892 458.693 440.904 458.253C441.931 457.799 443.075 457.571 444.336 457.571C446.008 457.571 447.343 457.967 448.34 458.759C449.338 459.551 449.836 460.629 449.836 461.993C449.836 462.829 449.66 463.614 449.308 464.347C448.956 465.081 448.282 465.917 447.284 466.855L443.17 470.771H450.43ZM466.367 469.693H463.639V473.191H460.867V469.693H452.419V467.713L460.009 457.791H463.067L455.917 467.273H460.955V464.171H463.639V467.273H466.367V469.693ZM474.641 454.667H477.105L469.845 475.391H467.381L474.641 454.667ZM489.884 457.791V459.705L483.9 473.191H480.842L486.628 460.211H480.578V462.829H477.916V457.791H489.884Z" fill="white"/>
<circle cx="531.498" cy="464.692" r="23" fill="#0E101C" stroke="white" stroke-linejoin="round"/>
<g filter="url(#filter1_dd_106_589)">
<rect x="586.998" y="431.192" width="348" height="68" rx="34" fill="#0E101C" fill-opacity="0.8" shape-rendering="crispEdges"/>
<rect x="587.998" y="432.192" width="346" height="66" rx="33" stroke="url(#paint1_linear_106_589)" stroke-opacity="0.8" stroke-width="2" stroke-linejoin="round" shape-rendering="crispEdges"/>
</g>
<path d="M669.519 457.792L662.831 470.222C662.244 471.322 661.54 472.151 660.719 472.708C659.912 473.251 659.032 473.522 658.079 473.522C657.316 473.522 656.561 473.361 655.813 473.038L656.517 470.794C657.118 470.985 657.617 471.08 658.013 471.08C658.937 471.08 659.699 470.604 660.301 469.65L660.543 469.276L654.405 457.792H657.463L662.017 466.834L666.703 457.792H669.519ZM685.307 457.792V473.192H682.491V460.212H676.419L676.287 464.062C676.214 466.218 676.038 467.971 675.759 469.32C675.481 470.655 675.033 471.674 674.417 472.378C673.801 473.068 672.951 473.412 671.865 473.412C671.484 473.412 670.963 473.339 670.303 473.192L670.501 470.706C670.692 470.765 670.912 470.794 671.161 470.794C672.056 470.794 672.687 470.266 673.053 469.21C673.435 468.14 673.669 466.46 673.757 464.172L673.977 457.792H685.307ZM691.048 473.346C690.549 473.346 690.124 473.178 689.772 472.84C689.42 472.488 689.244 472.048 689.244 471.52C689.244 470.978 689.412 470.538 689.75 470.2C690.102 469.863 690.534 469.694 691.048 469.694C691.561 469.694 691.986 469.863 692.324 470.2C692.676 470.538 692.852 470.978 692.852 471.52C692.852 472.048 692.676 472.488 692.324 472.84C691.972 473.178 691.546 473.346 691.048 473.346ZM718.999 470.772V476.47H716.359V473.192H704.545V476.47H701.883L701.905 470.772H702.565C703.533 470.728 704.208 470.017 704.589 468.638C704.985 467.245 705.227 465.258 705.315 462.676L705.491 457.792H716.777V470.772H718.999ZM707.823 462.94C707.75 464.935 707.588 466.6 707.339 467.934C707.09 469.254 706.694 470.2 706.151 470.772H713.961V460.212H707.933L707.823 462.94ZM732.887 469.628H725.187L723.669 473.192H720.721L727.651 457.792H730.467L737.419 473.192H734.427L732.887 469.628ZM731.941 467.384L729.037 460.652L726.155 467.384H731.941ZM756.036 470.772V476.47H753.396V473.192H741.582V476.47H738.92L738.942 470.772H739.602C740.57 470.728 741.245 470.017 741.626 468.638C742.022 467.245 742.264 465.258 742.352 462.676L742.528 457.792H753.814V470.772H756.036ZM744.86 462.94C744.787 464.935 744.626 466.6 744.376 467.934C744.127 469.254 743.731 470.2 743.188 470.772H750.998V460.212H744.97L744.86 462.94ZM769.925 469.628H762.225L760.707 473.192H757.759L764.689 457.792H767.505L774.457 473.192H771.465L769.925 469.628ZM768.979 467.384L766.075 460.652L763.193 467.384H768.979ZM789.248 470.794V473.192H777.698V457.792H788.94V460.19H780.558V464.194H787.994V466.548H780.558V470.794H789.248ZM803.458 465.184C804.441 465.448 805.189 465.903 805.702 466.548C806.216 467.179 806.472 467.971 806.472 468.924C806.472 470.274 805.974 471.322 804.976 472.07C803.979 472.818 802.534 473.192 800.642 473.192H793.338V457.792H800.224C801.955 457.792 803.304 458.137 804.272 458.826C805.24 459.516 805.724 460.491 805.724 461.752C805.724 462.559 805.526 463.256 805.13 463.842C804.749 464.429 804.192 464.876 803.458 465.184ZM796.154 464.37H799.982C800.906 464.37 801.61 464.187 802.094 463.82C802.578 463.454 802.82 462.911 802.82 462.192C802.82 461.474 802.578 460.931 802.094 460.564C801.61 460.183 800.906 459.992 799.982 459.992H796.154V464.37ZM800.554 470.992C802.578 470.992 803.59 470.23 803.59 468.704C803.59 467.208 802.578 466.46 800.554 466.46H796.154V470.992H800.554ZM820.818 469.628H813.118L811.6 473.192H808.652L815.582 457.792H818.398L825.35 473.192H822.358L820.818 469.628ZM819.872 467.384L816.968 460.652L814.086 467.384H819.872ZM829.872 469.694C830.386 469.694 830.811 469.863 831.148 470.2C831.486 470.538 831.654 470.978 831.654 471.52C831.654 471.755 831.618 472.004 831.544 472.268C831.486 472.518 831.354 472.899 831.148 473.412L830.026 476.514H828.244L829.124 473.148C828.802 473.016 828.545 472.811 828.354 472.532C828.178 472.239 828.09 471.902 828.09 471.52C828.09 470.978 828.259 470.538 828.596 470.2C828.934 469.863 829.359 469.694 829.872 469.694ZM848.342 463.688C849.354 463.688 850.263 463.886 851.07 464.282C851.876 464.664 852.507 465.214 852.962 465.932C853.416 466.651 853.644 467.48 853.644 468.418C853.644 469.416 853.394 470.296 852.896 471.058C852.397 471.806 851.722 472.386 850.872 472.796C850.021 473.207 849.068 473.412 848.012 473.412C845.9 473.412 844.257 472.752 843.084 471.432C841.925 470.112 841.346 468.22 841.346 465.756C841.346 464.026 841.661 462.552 842.292 461.334C842.922 460.102 843.802 459.171 844.932 458.54C846.076 457.895 847.396 457.572 848.892 457.572C849.684 457.572 850.424 457.66 851.114 457.836C851.818 457.998 852.426 458.24 852.94 458.562L851.884 460.718C851.121 460.22 850.146 459.97 848.958 459.97C847.476 459.97 846.318 460.425 845.482 461.334C844.646 462.244 844.228 463.556 844.228 465.272V465.294C844.682 464.766 845.262 464.37 845.966 464.106C846.67 463.828 847.462 463.688 848.342 463.688ZM847.858 471.168C848.752 471.168 849.478 470.934 850.036 470.464C850.593 469.98 850.872 469.342 850.872 468.55C850.872 467.744 850.593 467.106 850.036 466.636C849.478 466.167 848.73 465.932 847.792 465.932C846.868 465.932 846.112 466.182 845.526 466.68C844.954 467.179 844.668 467.81 844.668 468.572C844.668 469.32 844.946 469.944 845.504 470.442C846.076 470.926 846.86 471.168 847.858 471.168ZM862.575 464.15C863.997 464.326 865.083 464.81 865.831 465.602C866.579 466.394 866.953 467.384 866.953 468.572C866.953 469.467 866.725 470.281 866.271 471.014C865.816 471.748 865.127 472.334 864.203 472.774C863.293 473.2 862.179 473.412 860.859 473.412C859.759 473.412 858.695 473.258 857.669 472.95C856.657 472.628 855.791 472.188 855.073 471.63L856.305 469.408C856.862 469.878 857.537 470.252 858.329 470.53C859.135 470.794 859.964 470.926 860.815 470.926C861.827 470.926 862.619 470.721 863.191 470.31C863.777 469.885 864.071 469.313 864.071 468.594C864.071 467.876 863.792 467.318 863.235 466.922C862.692 466.512 861.856 466.306 860.727 466.306H859.319V464.348L862.817 460.19H855.821V457.792H866.315V459.706L862.575 464.15Z" fill="white"/>
<circle cx="930.498" cy="464.692" r="23" fill="#0E101C" stroke="white" stroke-linejoin="round"/>
<path d="M532.024 458.692V464.569L537.096 467.508C537.299 467.628 537.458 467.812 537.548 468.032C537.638 468.251 537.653 468.494 537.592 468.723C537.53 468.952 537.396 469.155 537.209 469.3C537.022 469.445 536.792 469.524 536.556 469.526C536.365 469.531 536.177 469.479 536.016 469.377L530.405 466.127H530.378L530.324 466.1L530.284 466.059L530.243 466.032L530.203 465.991L530.176 465.964C530.149 465.951 530.135 465.924 530.122 465.91L530.095 465.883L530.068 465.829L530.041 465.788L530.014 465.748C530.005 465.741 529.999 465.733 529.994 465.724C529.989 465.714 529.987 465.704 529.987 465.693L529.96 465.653C529.96 465.639 529.946 465.626 529.946 465.599C529.942 465.593 529.938 465.587 529.935 465.58C529.933 465.573 529.932 465.565 529.933 465.558L529.906 465.504C529.907 465.497 529.906 465.489 529.903 465.482C529.901 465.475 529.897 465.469 529.892 465.463C529.892 465.436 529.892 465.423 529.879 465.409V465.355C529.879 465.328 529.865 465.314 529.865 465.301V458.692C529.865 458.405 529.979 458.13 530.182 457.926C530.384 457.723 530.658 457.609 530.945 457.609C531.231 457.609 531.505 457.723 531.708 457.926C531.91 458.13 532.024 458.405 532.024 458.692ZM544.326 454.941C544.128 454.861 543.911 454.841 543.702 454.885C543.493 454.928 543.302 455.033 543.152 455.185L541.223 457.122L540.104 455.998C538.292 454.18 535.985 452.943 533.473 452.442C530.961 451.941 528.358 452.198 525.992 453.183C523.626 454.167 521.604 455.833 520.182 457.971C518.759 460.108 518 462.622 518 465.192C518 467.763 518.759 470.276 520.182 472.414C521.604 474.552 523.626 476.218 525.992 477.202C528.358 478.186 530.961 478.444 533.473 477.943C535.985 477.442 538.292 476.205 540.104 474.387C540.305 474.184 540.419 473.909 540.419 473.622C540.419 473.335 540.305 473.06 540.104 472.857C540.004 472.755 539.886 472.674 539.755 472.619C539.624 472.563 539.483 472.535 539.341 472.535C539.199 472.535 539.059 472.563 538.928 472.619C538.797 472.674 538.679 472.755 538.579 472.857C537.07 474.371 535.147 475.401 533.054 475.818C530.961 476.235 528.792 476.02 526.821 475.2C524.85 474.38 523.165 472.991 521.98 471.21C520.795 469.429 520.162 467.334 520.162 465.192C520.162 463.05 520.795 460.956 521.98 459.175C523.165 457.394 524.85 456.005 526.821 455.185C528.792 454.365 530.961 454.149 533.054 454.566C535.147 454.983 537.07 456.014 538.579 457.528L539.699 458.652L537.756 460.602C537.608 460.754 537.507 460.947 537.467 461.156C537.427 461.366 537.45 461.582 537.532 461.779C537.614 461.975 537.752 462.143 537.929 462.262C538.105 462.38 538.313 462.443 538.525 462.443H543.921C544.207 462.443 544.482 462.329 544.684 462.126C544.886 461.923 545 461.647 545 461.36V455.943C544.996 455.729 544.93 455.52 544.811 455.342C544.691 455.164 544.522 455.025 544.326 454.941Z" fill="white"/>
<path d="M930.5 451.192C927.716 451.196 925.047 452.314 923.079 454.303C921.11 456.291 920.003 458.988 920 461.8C920 470.877 929.545 477.735 929.951 478.025C930.114 478.134 930.305 478.192 930.5 478.192C930.695 478.192 930.886 478.134 931.049 478.025C931.455 477.735 941 470.877 941 461.8C940.997 458.988 939.89 456.291 937.921 454.303C935.953 452.314 933.284 451.196 930.5 451.192ZM930.5 457.943C931.255 457.943 931.993 458.169 932.621 458.593C933.249 459.017 933.739 459.619 934.028 460.324C934.317 461.029 934.392 461.804 934.245 462.552C934.097 463.301 933.734 463.988 933.2 464.527C932.666 465.067 931.986 465.434 931.245 465.583C930.504 465.732 929.737 465.656 929.039 465.364C928.341 465.072 927.745 464.577 927.325 463.943C926.906 463.309 926.682 462.563 926.682 461.8C926.682 460.777 927.084 459.796 927.8 459.072C928.516 458.349 929.487 457.943 930.5 457.943Z" fill="white"/>
<g filter="url(#filter2_d_106_589)">
<path d="M225.54 356.955L230.421 369.84H221.326L218.234 360.638H215.429L213.58 369.84H205L210.093 344.373H218.673L216.778 353.862H218.961L226.237 344.373H235.772L225.555 356.955H225.54Z" fill="url(#paint2_linear_106_589)"/>
<path d="M252.023 344.373H260.466L257.737 357.622L269.122 344.373H277.307L272.214 369.84H263.771L266.529 356.636L255.145 369.84H246.929L252.023 344.373Z" fill="url(#paint3_linear_106_589)"/>
<path d="M296.377 344.373H318.463L317.16 350.845H303.517L302.941 353.786H309.019C311.657 353.786 313.703 354.392 315.143 355.605C316.584 356.818 317.311 358.531 317.311 360.729C317.311 362.578 316.796 364.185 315.78 365.549C314.764 366.914 313.309 367.975 311.414 368.717C309.52 369.46 307.291 369.824 304.714 369.824H291.284L296.377 344.357V344.373ZM305.321 363.836C306.291 363.836 307.064 363.624 307.625 363.185C308.186 362.745 308.474 362.169 308.474 361.441C308.474 360.32 307.685 359.774 306.109 359.774H301.713L300.909 363.852H305.305L305.321 363.836Z" fill="url(#paint4_linear_106_589)"/>
<path d="M345.309 350.846L344.733 353.832H355.496L354.253 360.017H343.445L342.793 363.367H355.557L354.253 369.84H333.076L338.169 344.373H358.876L357.573 350.846H345.309Z" fill="url(#paint5_linear_106_589)"/>
<path d="M396.409 346.586C398.274 348.072 399.214 350.133 399.214 352.801C399.214 354.939 398.683 356.818 397.637 358.44C396.576 360.062 395.075 361.321 393.12 362.23C391.165 363.124 388.906 363.579 386.329 363.579H381.933L380.69 369.84H372.11L377.203 344.373H388.512C391.907 344.373 394.545 345.116 396.409 346.586ZM389.543 356.06C390.194 355.469 390.528 354.636 390.528 353.574C390.528 351.846 389.452 350.997 387.329 350.997H384.449L383.252 356.97H386.784C387.966 356.97 388.891 356.667 389.543 356.076V356.06Z" fill="url(#paint6_linear_106_589)"/>
<path d="M442.916 344.373L437.823 369.84H433.124L437.384 348.375H424.18L419.966 369.84H415.267L420.36 344.373H442.916Z" fill="url(#paint7_linear_106_589)"/>
<path d="M481.45 346.389C483.133 347.738 483.981 349.618 483.981 352.043C483.981 354.196 483.496 356.06 482.511 357.622C481.526 359.183 480.116 360.381 478.297 361.23C476.463 362.063 474.31 362.488 471.839 362.488H465.624L464.139 369.84H459.409L464.503 344.373H474.325C477.403 344.373 479.783 345.04 481.48 346.389H481.45ZM477.342 356.94C478.585 355.909 479.222 354.423 479.222 352.483C479.222 351.119 478.752 350.103 477.827 349.406C476.887 348.708 475.553 348.375 473.81 348.375H468.429L466.428 358.486H472.036C474.341 358.486 476.114 357.97 477.372 356.94H477.342Z" fill="url(#paint8_linear_106_589)"/>
<path d="M506.75 368.838C504.916 367.929 503.521 366.656 502.551 365.018C501.581 363.381 501.096 361.486 501.096 359.319C501.096 356.454 501.748 353.862 503.036 351.527C504.34 349.193 506.174 347.358 508.554 346.009C510.934 344.66 513.647 343.993 516.709 343.993C519.226 343.993 521.408 344.448 523.243 345.357C525.077 346.267 526.471 347.54 527.442 349.177C528.412 350.815 528.897 352.709 528.897 354.877C528.897 357.742 528.245 360.334 526.957 362.669C525.653 365.003 523.819 366.837 521.439 368.187C519.059 369.536 516.345 370.203 513.283 370.203C510.767 370.203 508.584 369.748 506.75 368.838ZM519.15 364.579C520.741 363.593 521.969 362.275 522.818 360.607C523.682 358.94 524.107 357.136 524.107 355.165C524.107 353.028 523.425 351.33 522.045 350.057C520.681 348.783 518.74 348.147 516.239 348.147C514.178 348.147 512.359 348.632 510.767 349.617C509.175 350.602 507.963 351.921 507.114 353.589C506.265 355.256 505.84 357.06 505.84 359.031C505.84 361.168 506.523 362.866 507.872 364.139C509.236 365.412 511.161 366.049 513.662 366.049C515.724 366.049 517.543 365.564 519.135 364.579H519.15Z" fill="url(#paint9_linear_106_589)"/>
<path d="M552.363 368.839C550.513 367.929 549.088 366.656 548.088 365.004C547.087 363.351 546.602 361.457 546.602 359.334C546.602 356.469 547.254 353.877 548.573 351.543C549.876 349.208 551.726 347.374 554.106 346.025C556.486 344.676 559.214 344.009 562.291 344.009C564.505 344.009 566.445 344.373 568.128 345.1C569.81 345.828 571.099 346.889 571.963 348.268L568.537 351.149C567.112 349.163 564.914 348.162 561.958 348.162C559.851 348.162 557.986 348.647 556.395 349.618C554.788 350.588 553.56 351.906 552.681 353.559C551.802 355.226 551.377 357.045 551.377 359.031C551.377 361.184 552.075 362.897 553.454 364.155C554.833 365.413 556.804 366.05 559.351 366.05C562.291 366.05 564.702 365.064 566.597 363.109L569.355 366.095C568.143 367.475 566.657 368.505 564.884 369.187C563.11 369.87 561.155 370.203 558.987 370.203C556.44 370.203 554.242 369.748 552.378 368.839H552.363Z" fill="url(#paint10_linear_106_589)"/>
<path d="M609.829 348.375H601.356L597.141 369.84H592.442L596.656 348.375H588.319L589.123 344.373H610.663L609.829 348.375Z" fill="url(#paint11_linear_106_589)"/>
<path d="M646.119 346.389C647.802 347.738 648.651 349.618 648.651 352.043C648.651 354.196 648.166 356.06 647.181 357.622C646.195 359.183 644.785 360.381 642.966 361.23C641.132 362.063 638.98 362.488 636.509 362.488H630.294L628.808 369.84H624.079L629.172 344.373H638.995C642.072 344.373 644.452 345.04 646.15 346.389H646.119ZM642.011 356.94C643.254 355.909 643.891 354.423 643.891 352.483C643.891 351.119 643.421 350.103 642.496 349.406C641.557 348.708 640.223 348.375 638.479 348.375H633.098L631.097 358.486H636.706C639.01 358.486 640.784 357.97 642.042 356.94H642.011Z" fill="url(#paint12_linear_106_589)"/>
<path d="M681.833 363.943H669.024L665.356 369.84H660.293L676.846 344.373H681.545L687.882 369.84H683.183L681.833 363.943ZM680.954 360.229L678.377 349.027L671.359 360.229H680.969H680.954Z" fill="url(#paint13_linear_106_589)"/>
<path d="M734.025 344.373L728.932 369.84H724.232L726.385 359.032H713.212L711.059 369.84H706.33L711.423 344.373H716.153L714.076 354.817H727.249L729.326 344.373H734.025Z" fill="url(#paint14_linear_106_589)"/>
<path d="M757.006 368.839C755.156 367.929 753.731 366.656 752.731 365.004C751.73 363.351 751.245 361.457 751.245 359.334C751.245 356.469 751.897 353.877 753.216 351.543C754.52 349.208 756.369 347.374 758.749 346.025C761.129 344.676 763.857 344.009 766.935 344.009C769.148 344.009 771.088 344.373 772.771 345.1C774.453 345.828 775.742 346.889 776.606 348.268L773.18 351.149C771.755 349.163 769.557 348.162 766.601 348.162C764.494 348.162 762.629 348.647 761.038 349.618C759.431 350.588 758.203 351.906 757.324 353.559C756.445 355.226 756.02 357.045 756.02 359.031C756.02 361.184 756.718 362.897 758.097 364.155C759.476 365.413 761.447 366.05 763.994 366.05C766.935 366.05 769.345 365.064 771.24 363.109L773.999 366.095C772.786 367.475 771.3 368.505 769.527 369.187C767.753 369.87 765.798 370.203 763.63 370.203C761.083 370.203 758.885 369.748 757.021 368.839H757.006Z" fill="url(#paint15_linear_106_589)"/>
<path d="M814.472 348.375H805.999L801.785 369.84H797.085L801.299 348.375H792.962L793.766 344.373H815.306L814.472 348.375Z" fill="url(#paint16_linear_106_589)"/>
<path d="M851.839 358.592C852.445 359.471 852.748 360.547 852.748 361.836C852.748 364.458 851.733 366.444 849.686 367.808C847.655 369.173 844.911 369.84 841.47 369.84H828.707L833.8 344.373H845.548C848.186 344.373 850.232 344.858 851.672 345.843C853.112 346.829 853.84 348.239 853.84 350.088C853.84 351.664 853.43 353.014 852.597 354.15C851.778 355.272 850.671 356.121 849.292 356.682C850.383 357.091 851.232 357.743 851.839 358.607V358.592ZM846.397 365.034C847.473 364.307 848.019 363.246 848.019 361.836C848.019 360.745 847.64 359.956 846.867 359.486C846.109 359.016 844.957 358.774 843.426 358.774H835.604L834.148 366.126H841.789C843.774 366.126 845.305 365.762 846.397 365.034ZM837.756 348.087L836.331 355.105H843.062C844.851 355.105 846.275 354.742 847.321 354.029C848.367 353.317 848.883 352.271 848.883 350.876C848.883 349.012 847.412 348.072 844.487 348.072H837.756V348.087Z" fill="url(#paint17_linear_106_589)"/>
<path d="M877.32 368.838C875.486 367.929 874.092 366.656 873.122 365.018C872.151 363.381 871.666 361.486 871.666 359.319C871.666 356.454 872.318 353.862 873.607 351.527C874.91 349.193 876.744 347.358 879.124 346.009C881.504 344.66 884.218 343.993 887.28 343.993C889.796 343.993 891.979 344.448 893.813 345.357C895.647 346.267 897.042 347.54 898.012 349.177C898.982 350.815 899.467 352.709 899.467 354.877C899.467 357.742 898.816 360.334 897.527 362.669C896.223 365.003 894.389 366.837 892.009 368.187C889.629 369.536 886.916 370.203 883.854 370.203C881.338 370.203 879.155 369.748 877.32 368.838ZM889.72 364.579C891.312 363.593 892.54 362.275 893.389 360.607C894.253 358.94 894.677 357.136 894.677 355.165C894.677 353.028 893.995 351.33 892.616 350.057C891.251 348.783 889.311 348.147 886.81 348.147C884.748 348.147 882.929 348.632 881.338 349.617C879.746 350.602 878.533 351.921 877.684 353.589C876.835 355.256 876.411 357.06 876.411 359.031C876.411 361.168 877.093 362.866 878.442 364.139C879.807 365.412 881.732 366.049 884.233 366.049C886.295 366.049 888.114 365.564 889.705 364.579H889.72Z" fill="url(#paint18_linear_106_589)"/>
<path d="M398.198 168.167H264.422C268.197 160.361 274.018 153.191 281.794 146.809C291.344 138.972 301.288 135 311.339 135H373.611C381.554 135 388.163 139.972 393.802 150.204V150.235H393.833C396.334 154.615 397.804 160.633 398.198 168.152V168.167Z" fill="url(#paint19_linear_106_589)"/>
<path d="M394.954 194.212C391.422 205.566 384.783 215.146 375.172 222.726C368.563 227.713 356.936 233.443 340.595 239.749C323.132 246.51 310.944 252.861 303.365 259.182L293.8 267.156H373.99L364.364 301.081L226.328 301.324C227.556 291.243 230.497 281.784 235.075 273.159C240.411 263.124 248.127 253.877 258.071 245.646C268.394 236.99 286.615 226.546 312.248 214.585C326.179 208.022 335.168 199.017 338.867 194.212H394.954Z" fill="url(#paint20_linear_106_589)"/>
<path d="M772.21 168.167H638.252C642.072 160.391 647.757 153.357 655.184 147.172C661.915 141.624 668.767 137.941 675.588 136.198C678.726 135.394 681.924 135 685.093 135H747.365C755.793 135 762.554 139.942 768.026 150.113C770.406 154.782 771.816 160.846 772.21 168.167Z" fill="url(#paint21_linear_106_589)"/>
<path d="M748.214 210.705L744.909 213.585L747.713 216.965C751.973 222.119 754.035 228.744 754.035 237.232C754.035 252.149 748.593 266.034 737.845 278.51C727.173 290.925 714.319 298.686 699.66 301.581H653.077C642.193 301.581 633.492 299.156 627.216 294.381C620.941 289.591 616.878 282.481 614.801 272.643V272.583L614.771 272.507C614.241 270.309 614.013 265.625 615.681 255.711H663.309V256.287C663.309 260.092 664.78 268.929 678.483 268.929C682.652 268.929 686.942 268.262 691.202 266.974C696.371 265.443 700.933 263.002 704.784 259.743C710.059 255.302 712.742 250.375 712.742 245.1C712.742 242.083 711.59 236.535 703.859 233.321C699.205 231.381 692.642 230.441 683.834 230.441H667.857L677.619 194.212H763.509C759.719 199.608 754.595 205.126 748.214 210.705Z" fill="url(#paint22_linear_106_589)"/>
<path d="M932.362 194.212C922.994 236.005 911.852 264.412 899.286 278.692C891.009 287.923 882.293 294.26 873.41 297.549C868.241 299.414 859.736 300.778 848.125 301.581L823.674 301.339C813.578 301.172 805.635 300.005 800.117 297.852C786.126 292.274 779.319 281.102 779.319 263.669C779.319 259 779.926 253.179 781.108 246.313H830.571C830.541 246.737 830.541 247.177 830.541 247.646C830.541 251.633 832.072 260.895 846.26 260.895C847.155 260.895 848.125 260.865 849.11 260.789H849.156C858.842 259.94 865.315 254.68 867.862 245.524L871.166 233.321L872.697 227.637H831.541C807.727 227.637 796.631 218.481 796.6 198.82C796.615 198.578 796.706 197.653 797.101 194.212H932.362Z" fill="url(#paint23_linear_106_589)"/>
<path d="M936 165.06C936 166.045 935.97 167.091 935.909 168.167H801.572C804.801 160.603 809.728 153.66 816.276 147.491H816.291L816.322 147.445C824.886 139.184 833.845 135 842.925 135H907.214C926.859 135 936 144.55 936 165.06Z" fill="url(#paint24_linear_106_589)"/>
<path d="M563.019 165.561C563.019 166.546 563.004 167.592 562.958 168.668H428.682C432.017 161.119 437.004 154.146 443.568 147.886C452.269 139.548 460.97 135.501 470.187 135.501H534.687C554.015 135.501 563.019 145.051 563.019 165.561Z" fill="url(#paint25_linear_106_589)"/>
<path d="M557.138 194.212L550.195 221.407C547.694 230.669 545.799 237.808 544.859 241.538C543.131 247.859 540.948 253.74 538.356 259.031L534.945 265.367C533.156 268.338 531.201 271.143 529.124 273.704C526.002 277.57 522.485 281.072 518.634 284.149C517.71 284.892 516.785 285.589 515.86 286.226L515.83 286.256C502.839 295.548 485.77 300.702 465.094 301.581L458.439 301.339C446.388 300.687 437.08 299.232 430.744 297.003C419.754 293.198 412.66 286.908 409.067 277.767V277.737H409.037C407.415 273.735 406.581 268.581 406.581 262.411C406.581 254.877 407.718 246.889 409.977 238.673L422.043 194.227H471.839L460.016 235.989L457.984 242.826L457.802 243.448V246.904C457.802 250.86 459.409 260.077 474.401 260.077C474.901 260.077 475.432 260.077 475.978 260.046C485.785 259.622 492.334 254.347 494.896 244.766L508.478 194.227H557.138V194.212Z" fill="url(#paint26_linear_106_589)"/>
<path d="M554.303 306.097H580.376L587.379 281.161H561.473L554.303 306.097Z" fill="url(#paint27_linear_106_589)"/>
</g>
<defs>
<filter id="filter0_dd_106_589" x="0" y="191.192" width="780" height="501" filterUnits="userSpaceOnUse" color-interpolation-filters="sRGB">
<feFlood flood-opacity="0" result="BackgroundImageFix"/>
<feColorMatrix in="SourceAlpha" type="matrix" values="0 0 0 0 0 0 0 0 0 0 0 0 0 0 0 0 0 0 127 0" result="hardAlpha"/>
<feOffset dx="-28" dy="33"/>
<feGaussianBlur stdDeviation="80"/>
<feComposite in2="hardAlpha" operator="out"/>
<feColorMatrix type="matrix" values="0 0 0 0 0 0 0 0 0 0.22 0 0 0 0 1 0 0 0 0.3 0"/>
<feBlend mode="normal" in2="BackgroundImageFix" result="effect1_dropShadow_106_589"/>
<feColorMatrix in="SourceAlpha" type="matrix" values="0 0 0 0 0 0 0 0 0 0 0 0 0 0 0 0 0 0 127 0" result="hardAlpha"/>
<feOffset dx="30" dy="-26"/>
<feGaussianBlur stdDeviation="107"/>
<feComposite in2="hardAlpha" operator="out"/>
<feColorMatrix type="matrix" values="0 0 0 0 0.970833 0 0 0 0 0 0 0 0 0 0.233 0 0 0 0.2 0"/>
<feBlend mode="normal" in2="effect1_dropShadow_106_589" result="effect2_dropShadow_106_589"/>
<feBlend mode="normal" in="SourceGraphic" in2="effect2_dropShadow_106_589" result="shape"/>
</filter>
<filter id="filter1_dd_106_589" x="398.998" y="191.192" width="780" height="501" filterUnits="userSpaceOnUse" color-interpolation-filters="sRGB">
<feFlood flood-opacity="0" result="BackgroundImageFix"/>
<feColorMatrix in="SourceAlpha" type="matrix" values="0 0 0 0 0 0 0 0 0 0 0 0 0 0 0 0 0 0 127 0" result="hardAlpha"/>
<feOffset dx="-28" dy="33"/>
<feGaussianBlur stdDeviation="80"/>
<feComposite in2="hardAlpha" operator="out"/>
<feColorMatrix type="matrix" values="0 0 0 0 0 0 0 0 0 0.22 0 0 0 0 1 0 0 0 0.3 0"/>
<feBlend mode="normal" in2="BackgroundImageFix" result="effect1_dropShadow_106_589"/>
<feColorMatrix in="SourceAlpha" type="matrix" values="0 0 0 0 0 0 0 0 0 0 0 0 0 0 0 0 0 0 127 0" result="hardAlpha"/>
<feOffset dx="30" dy="-26"/>
<feGaussianBlur stdDeviation="107"/>
<feComposite in2="hardAlpha" operator="out"/>
<feColorMatrix type="matrix" values="0 0 0 0 0.970833 0 0 0 0 0 0 0 0 0 0.233 0 0 0 0.2 0"/>
<feBlend mode="normal" in2="effect1_dropShadow_106_589" result="effect2_dropShadow_106_589"/>
<feBlend mode="normal" in="SourceGraphic" in2="effect2_dropShadow_106_589" result="shape"/>
</filter>
<filter id="filter2_d_106_589" x="5.829" y="0.453632" width="1070.01" height="574.218" filterUnits="userSpaceOnUse" color-interpolation-filters="sRGB">
<feFlood flood-opacity="0" result="BackgroundImageFix"/>
<feColorMatrix in="SourceAlpha" type="matrix" values="0 0 0 0 0 0 0 0 0 0 0 0 0 0 0 0 0 0 127 0" result="hardAlpha"/>
<feOffset dx="-29.6638" dy="34.9609"/>
<feGaussianBlur stdDeviation="84.7536"/>
<feComposite in2="hardAlpha" operator="out"/>
<feColorMatrix type="matrix" values="0 0 0 0 0 0 0 0 0 0.22 0 0 0 0 1 0 0 0 0.3 0"/>
<feBlend mode="normal" in2="BackgroundImageFix" result="effect1_dropShadow_106_589"/>
<feBlend mode="normal" in="SourceGraphic" in2="effect1_dropShadow_106_589" result="shape"/>
</filter>
<linearGradient id="paint0_linear_106_589" x1="548.488" y1="419.601" x2="515.502" y2="571.119" gradientUnits="userSpaceOnUse">
<stop stop-color="#130EFF"/>
<stop offset="0.272604" stop-color="#49FFE9" stop-opacity="0.65"/>
<stop offset="0.421875" stop-color="white" stop-opacity="0"/>
<stop offset="0.630208" stop-color="#FF7EBC" stop-opacity="0.81"/>
<stop offset="0.796875" stop-color="#FB047B" stop-opacity="0.796875"/>
<stop offset="1" stop-color="#FF2CF7"/>
</linearGradient>
<linearGradient id="paint1_linear_106_589" x1="947.486" y1="419.601" x2="914.5" y2="571.119" gradientUnits="userSpaceOnUse">
<stop stop-color="#130EFF"/>
<stop offset="0.272604" stop-color="#49FFE9" stop-opacity="0.65"/>
<stop offset="0.421875" stop-color="white" stop-opacity="0"/>
<stop offset="0.630208" stop-color="#FF7EBC" stop-opacity="0.81"/>
<stop offset="0.796875" stop-color="#FB047B" stop-opacity="0.796875"/>
<stop offset="1" stop-color="#FF2CF7"/>
</linearGradient>
<linearGradient id="paint2_linear_106_589" x1="180.549" y1="361.245" x2="891.145" y2="286.937" gradientUnits="userSpaceOnUse">
<stop stop-color="#9A0880"/>
<stop offset="0.24" stop-color="#E818C1"/>
<stop offset="0.64" stop-color="#6EC6ED"/>
<stop offset="0.82" stop-color="#1F6CAA"/>
<stop offset="1" stop-color="#312762"/>
</linearGradient>
<linearGradient id="paint3_linear_106_589" x1="181.004" y1="365.58" x2="891.6" y2="291.272" gradientUnits="userSpaceOnUse">
<stop stop-color="#9A0880"/>
<stop offset="0.24" stop-color="#E818C1"/>
<stop offset="0.64" stop-color="#6EC6ED"/>
<stop offset="0.82" stop-color="#1F6CAA"/>
<stop offset="1" stop-color="#312762"/>
</linearGradient>
<linearGradient id="paint4_linear_106_589" x1="181.428" y1="369.627" x2="892.025" y2="295.319" gradientUnits="userSpaceOnUse">
<stop stop-color="#9A0880"/>
<stop offset="0.24" stop-color="#E818C1"/>
<stop offset="0.64" stop-color="#6EC6ED"/>
<stop offset="0.82" stop-color="#1F6CAA"/>
<stop offset="1" stop-color="#312762"/>
</linearGradient>
<linearGradient id="paint5_linear_106_589" x1="181.913" y1="374.281" x2="892.509" y2="299.973" gradientUnits="userSpaceOnUse">
<stop stop-color="#9A0880"/>
<stop offset="0.24" stop-color="#E818C1"/>
<stop offset="0.64" stop-color="#6EC6ED"/>
<stop offset="0.82" stop-color="#1F6CAA"/>
<stop offset="1" stop-color="#312762"/>
</linearGradient>
<linearGradient id="paint6_linear_106_589" x1="182.262" y1="377.677" x2="892.858" y2="303.354" gradientUnits="userSpaceOnUse">
<stop stop-color="#9A0880"/>
<stop offset="0.24" stop-color="#E818C1"/>
<stop offset="0.64" stop-color="#6EC6ED"/>
<stop offset="0.82" stop-color="#1F6CAA"/>
<stop offset="1" stop-color="#312762"/>
</linearGradient>
<linearGradient id="paint7_linear_106_589" x1="182.808" y1="382.861" x2="893.404" y2="308.553" gradientUnits="userSpaceOnUse">
<stop stop-color="#9A0880"/>
<stop offset="0.24" stop-color="#E818C1"/>
<stop offset="0.64" stop-color="#6EC6ED"/>
<stop offset="0.82" stop-color="#1F6CAA"/>
<stop offset="1" stop-color="#312762"/>
</linearGradient>
<linearGradient id="paint8_linear_106_589" x1="183.187" y1="386.499" x2="893.783" y2="312.191" gradientUnits="userSpaceOnUse">
<stop stop-color="#9A0880"/>
<stop offset="0.24" stop-color="#E818C1"/>
<stop offset="0.64" stop-color="#6EC6ED"/>
<stop offset="0.82" stop-color="#1F6CAA"/>
<stop offset="1" stop-color="#312762"/>
</linearGradient>
<linearGradient id="paint9_linear_106_589" x1="183.747" y1="391.743" x2="894.329" y2="317.435" gradientUnits="userSpaceOnUse">
<stop stop-color="#9A0880"/>
<stop offset="0.24" stop-color="#E818C1"/>
<stop offset="0.64" stop-color="#6EC6ED"/>
<stop offset="0.82" stop-color="#1F6CAA"/>
<stop offset="1" stop-color="#312762"/>
</linearGradient>
<linearGradient id="paint10_linear_106_589" x1="184.232" y1="396.458" x2="894.829" y2="322.15" gradientUnits="userSpaceOnUse">
<stop stop-color="#9A0880"/>
<stop offset="0.24" stop-color="#E818C1"/>
<stop offset="0.64" stop-color="#6EC6ED"/>
<stop offset="0.82" stop-color="#1F6CAA"/>
<stop offset="1" stop-color="#312762"/>
</linearGradient>
<linearGradient id="paint11_linear_106_589" x1="184.581" y1="399.824" x2="895.177" y2="325.516" gradientUnits="userSpaceOnUse">
<stop stop-color="#9A0880"/>
<stop offset="0.24" stop-color="#E818C1"/>
<stop offset="0.64" stop-color="#6EC6ED"/>
<stop offset="0.82" stop-color="#1F6CAA"/>
<stop offset="1" stop-color="#312762"/>
</linearGradient>
<linearGradient id="paint12_linear_106_589" x1="184.976" y1="403.538" x2="895.556" y2="329.215" gradientUnits="userSpaceOnUse">
<stop stop-color="#9A0880"/>
<stop offset="0.24" stop-color="#E818C1"/>
<stop offset="0.64" stop-color="#6EC6ED"/>
<stop offset="0.82" stop-color="#1F6CAA"/>
<stop offset="1" stop-color="#312762"/>
</linearGradient>
<linearGradient id="paint13_linear_106_589" x1="185.551" y1="409.055" x2="896.148" y2="334.747" gradientUnits="userSpaceOnUse">
<stop stop-color="#9A0880"/>
<stop offset="0.24" stop-color="#E818C1"/>
<stop offset="0.64" stop-color="#6EC6ED"/>
<stop offset="0.82" stop-color="#1F6CAA"/>
<stop offset="1" stop-color="#312762"/>
</linearGradient>
<linearGradient id="paint14_linear_106_589" x1="185.961" y1="412.966" x2="896.542" y2="338.658" gradientUnits="userSpaceOnUse">
<stop stop-color="#9A0880"/>
<stop offset="0.24" stop-color="#E818C1"/>
<stop offset="0.64" stop-color="#6EC6ED"/>
<stop offset="0.82" stop-color="#1F6CAA"/>
<stop offset="1" stop-color="#312762"/>
</linearGradient>
<linearGradient id="paint15_linear_106_589" x1="186.444" y1="417.635" x2="897.042" y2="343.311" gradientUnits="userSpaceOnUse">
<stop stop-color="#9A0880"/>
<stop offset="0.24" stop-color="#E818C1"/>
<stop offset="0.64" stop-color="#6EC6ED"/>
<stop offset="0.82" stop-color="#1F6CAA"/>
<stop offset="1" stop-color="#312762"/>
</linearGradient>
<linearGradient id="paint16_linear_106_589" x1="186.795" y1="421.001" x2="897.391" y2="346.677" gradientUnits="userSpaceOnUse">
<stop stop-color="#9A0880"/>
<stop offset="0.24" stop-color="#E818C1"/>
<stop offset="0.64" stop-color="#6EC6ED"/>
<stop offset="0.82" stop-color="#1F6CAA"/>
<stop offset="1" stop-color="#312762"/>
</linearGradient>
<linearGradient id="paint17_linear_106_589" x1="187.236" y1="425.184" x2="897.83" y2="350.877" gradientUnits="userSpaceOnUse">
<stop stop-color="#9A0880"/>
<stop offset="0.24" stop-color="#E818C1"/>
<stop offset="0.64" stop-color="#6EC6ED"/>
<stop offset="0.82" stop-color="#1F6CAA"/>
<stop offset="1" stop-color="#312762"/>
</linearGradient>
<linearGradient id="paint18_linear_106_589" x1="187.748" y1="430.08" x2="898.33" y2="355.771" gradientUnits="userSpaceOnUse">
<stop stop-color="#9A0880"/>
<stop offset="0.24" stop-color="#E818C1"/>
<stop offset="0.64" stop-color="#6EC6ED"/>
<stop offset="0.82" stop-color="#1F6CAA"/>
<stop offset="1" stop-color="#312762"/>
</linearGradient>
<linearGradient id="paint19_linear_106_589" x1="191.66" y1="201.956" x2="905.349" y2="-22.5296" gradientUnits="userSpaceOnUse">
<stop stop-color="#9A0880"/>
<stop offset="0.24" stop-color="#E818C1"/>
<stop offset="0.64" stop-color="#6EC6ED"/>
<stop offset="0.82" stop-color="#1F6CAA"/>
<stop offset="1" stop-color="#312762"/>
</linearGradient>
<linearGradient id="paint20_linear_106_589" x1="219.143" y1="289.318" x2="932.832" y2="64.8472" gradientUnits="userSpaceOnUse">
<stop stop-color="#9A0880"/>
<stop offset="0.24" stop-color="#E818C1"/>
<stop offset="0.64" stop-color="#6EC6ED"/>
<stop offset="0.82" stop-color="#1F6CAA"/>
<stop offset="1" stop-color="#312762"/>
</linearGradient>
<linearGradient id="paint21_linear_106_589" x1="225.328" y1="308.977" x2="939.017" y2="84.4911" gradientUnits="userSpaceOnUse">
<stop stop-color="#9A0880"/>
<stop offset="0.24" stop-color="#E818C1"/>
<stop offset="0.64" stop-color="#6EC6ED"/>
<stop offset="0.82" stop-color="#1F6CAA"/>
<stop offset="1" stop-color="#312762"/>
</linearGradient>
<linearGradient id="paint22_linear_106_589" x1="249.612" y1="386.197" x2="963.301" y2="161.712" gradientUnits="userSpaceOnUse">
<stop stop-color="#9A0880"/>
<stop offset="0.24" stop-color="#E818C1"/>
<stop offset="0.64" stop-color="#6EC6ED"/>
<stop offset="0.82" stop-color="#1F6CAA"/>
<stop offset="1" stop-color="#312762"/>
</linearGradient>
<linearGradient id="paint23_linear_106_589" x1="262.179" y1="426.156" x2="975.868" y2="201.67" gradientUnits="userSpaceOnUse">
<stop stop-color="#9A0880"/>
<stop offset="0.24" stop-color="#E818C1"/>
<stop offset="0.64" stop-color="#6EC6ED"/>
<stop offset="0.82" stop-color="#1F6CAA"/>
<stop offset="1" stop-color="#312762"/>
</linearGradient>
<linearGradient id="paint24_linear_106_589" x1="239.85" y1="355.166" x2="953.539" y2="130.695" gradientUnits="userSpaceOnUse">
<stop stop-color="#9A0880"/>
<stop offset="0.24" stop-color="#E818C1"/>
<stop offset="0.64" stop-color="#6EC6ED"/>
<stop offset="0.82" stop-color="#1F6CAA"/>
<stop offset="1" stop-color="#312762"/>
</linearGradient>
<linearGradient id="paint25_linear_106_589" x1="206.425" y1="248.888" x2="920.114" y2="24.4176" gradientUnits="userSpaceOnUse">
<stop stop-color="#9A0880"/>
<stop offset="0.24" stop-color="#E818C1"/>
<stop offset="0.64" stop-color="#6EC6ED"/>
<stop offset="0.82" stop-color="#1F6CAA"/>
<stop offset="1" stop-color="#312762"/>
</linearGradient>
<linearGradient id="paint26_linear_106_589" x1="228.117" y1="317.862" x2="941.806" y2="93.376" gradientUnits="userSpaceOnUse">
<stop stop-color="#9A0880"/>
<stop offset="0.24" stop-color="#E818C1"/>
<stop offset="0.64" stop-color="#6EC6ED"/>
<stop offset="0.82" stop-color="#1F6CAA"/>
<stop offset="1" stop-color="#312762"/>
</linearGradient>
<linearGradient id="paint27_linear_106_589" x1="252.037" y1="393.927" x2="965.726" y2="169.456" gradientUnits="userSpaceOnUse">
<stop stop-color="#9A0880"/>
<stop offset="0.24" stop-color="#E818C1"/>
<stop offset="0.64" stop-color="#6EC6ED"/>
<stop offset="0.82" stop-color="#1F6CAA"/>
<stop offset="1" stop-color="#312762"/>
</linearGradient>
</defs>
</svg>
